<?xml version="1.0" encoding="UTF-8"?>
<svg width="80px" height="80px" viewBox="0 0 80 80" version="1.1" xmlns="http://www.w3.org/2000/svg" xmlns:xlink="http://www.w3.org/1999/xlink">
    <!-- Generator: Sketch 52.3 (67297) - http://www.bohemiancoding.com/sketch -->
    <title>count-branch</title>
    <desc>Created with Sketch.</desc>
    <g id="Symbols" stroke="none" stroke-width="1" fill="none" fill-rule="evenodd">
        <g id="count-branch" fill="#008749" fill-rule="nonzero">
            <g id="branch">
                <path d="M70.3273939,25.2758147 C65.6284958,25.2758147 61.7153431,28.6291322 60.8433533,33.0744884 L50.9490237,32.8417122 C50.314834,22.2457045 41.5242657,13.847339 30.7696688,13.847339 C26.302877,13.847339 22.1760391,15.2987574 18.8297552,17.751951 L17.1520916,15.7954584 C18.5192752,14.1280102 19.341193,11.9953445 19.341193,9.67076397 C19.341193,4.33014034 15.0108852,0.00083732458 9.66959172,0 C4.32947048,0.000167464916 0,4.32947048 0,9.67093144 C0,15.0120575 4.32846569,19.3413605 9.66959172,19.3413605 C11.4957966,19.3413605 13.1969052,18.8264059 14.6540175,17.9470476 L16.3390495,19.9109087 C12.7599893,23.5596343 10.5501222,28.5541079 10.5501222,34.0683927 C10.5501222,43.3370734 16.7893626,51.1446227 25.2962454,53.5316676 L23.1260676,60.6353619 C22.2071876,60.3469873 21.2322069,60.1890679 20.219714,60.1890679 C14.8787554,60.1890679 10.54895,64.5192082 10.54895,69.8605017 C10.54895,75.2011254 14.8777506,79.529926 20.219714,79.5307633 C25.5598352,79.5307633 29.8906454,75.2011254 29.8906454,69.8605017 C29.8906454,66.732927 28.3990354,63.9608802 26.0970627,62.1922832 L28.5504237,54.1630103 C29.2790635,54.243561 30.0180862,54.2877717 30.7689989,54.2877717 C41.2367284,54.2877717 49.8476069,46.3310112 50.8842148,36.1372542 L60.7740228,36.3700305 C61.4646482,41.0335935 65.4727535,44.6155006 70.3277288,44.6155006 C75.6701946,44.6155006 80,40.2870349 80,34.9460763 C79.9996651,29.6042804 75.6698597,25.2758147 70.3273939,25.2758147 Z M20.2205513,77.374485 C16.0766319,77.374485 12.7053957,74.002244 12.7053957,69.8583247 C12.7053957,69.4224135 13.0580768,69.0707372 13.4934856,69.0707372 C13.9287269,69.0707372 14.281743,69.422581 14.281743,69.8583247 C14.281743,73.1336035 16.9461098,75.7964631 20.2205513,75.7964631 C20.6559601,75.7964631 21.0089761,76.150149 21.0101484,76.5855578 C21.0101484,77.0221389 20.6559601,77.374485 20.2205513,77.374485 Z M8.88233915,2.94436815 C8.88233915,2.50912684 9.23535519,2.15544094 9.67076397,2.15544094 C13.8146833,2.15627826 17.186087,5.52801688 17.186087,9.67093144 C17.186087,10.1071775 16.8332384,10.4598587 16.3978297,10.4598587 C15.9620859,10.4598587 15.6094048,10.1071775 15.6094048,9.67093144 C15.6094048,6.3966574 12.9453729,3.73296044 9.67076397,3.73296044 C9.23518773,3.73296044 8.88233915,3.38011187 8.88233915,2.94436815 Z M18.3524802,34.067053 C18.3524802,34.978397 17.6147972,35.71608 16.7044579,35.71608 C15.7936162,35.71608 15.0557658,34.978397 15.0557658,34.067053 C15.0557658,25.4032555 22.1058713,18.3536524 30.7696688,18.3536524 C31.6798406,18.3536524 32.4181934,19.090833 32.4181934,20.002177 C32.4181934,20.9135211 31.6796731,21.6507017 30.7696688,21.6507017 C23.9228657,21.6496969 18.3524802,27.2199149 18.3524802,34.067053 Z M77.0554644,35.7338313 C76.6193857,35.7338313 76.2673745,35.3811501 76.2673745,34.9459088 C76.2673745,31.6716348 73.6026727,29.0067656 70.3273939,29.0067656 C69.8929899,29.0067656 69.5396389,28.653917 69.5396389,28.2183408 C69.5396389,27.782932 69.8929899,27.4294135 70.3273939,27.4294135 C74.4713133,27.4302509 77.8445591,30.8021569 77.8445591,34.9460763 C77.8445591,35.3809827 77.4908732,35.7338313 77.0554644,35.7338313 Z" id="Shape"></path>
            </g>
        </g>
    </g>
</svg>