<?xml version="1.0" encoding="UTF-8"?>
<svg width="80px" height="80px" viewBox="0 0 80 80" version="1.1" xmlns="http://www.w3.org/2000/svg" xmlns:xlink="http://www.w3.org/1999/xlink">
    <!-- Generator: Sketch 52.3 (67297) - http://www.bohemiancoding.com/sketch -->
    <title>count-cash</title>
    <desc>Created with Sketch.</desc>
    <g id="Symbols" stroke="none" stroke-width="1" fill="none" fill-rule="evenodd">
        <g id="count-cash" fill="#008749" fill-rule="nonzero">
            <g id="branch" transform="translate(0.000000, 16.000000)">
                <g id="atm">
                    <path d="M79.6231263,37.3461242 C79.0920771,36.5581156 78.0471092,36.3525482 77.2591006,36.8835974 L64.4796574,45.2604711 L47.6573876,45.2604711 L47.6573876,38.2369165 L64.993576,38.2369165 C65.3533191,38.2369165 65.7130621,38.0998715 65.987152,37.8943041 L79.1777302,28.3696788 C79.9486081,27.8214989 80.1199143,26.7422698 79.5546039,25.9885225 C79.006424,25.2176445 77.9271949,25.0463383 77.1734475,25.6116488 L64.4453961,34.8107923 L47.6573876,34.8107923 L47.6573876,27.6159315 L64.993576,27.6159315 C65.3704497,27.6330621 65.7473233,27.5131478 66.0556745,27.2904497 L79.2462527,16.8921627 C79.9828694,16.292591 80.1027837,15.2133619 79.5203426,14.4767452 C78.9379015,13.7401285 77.875803,13.6202141 77.1220557,14.1855246 L64.3940043,24.1898073 L47.6573876,24.1898073 L47.6573876,17.3375589 L64.993576,17.3375589 C65.4218415,17.3204283 65.8501071,17.1491221 66.1584582,16.8579015 L79.3490364,4.62663812 C79.862955,4.12985011 80.0342612,3.37610278 79.7773019,2.70800857 C79.5203426,2.03991435 78.8865096,1.5945182 78.1841542,1.57738758 L61.8415418,1.57738758 C61.8244111,1.57738758 61.7901499,1.2690364 61.738758,1.13199143 C61.4817987,0.481027837 60.8479657,0.0356316916 60.1456103,0.0356316916 L33.9357602,0.0356316916 C33.5074946,0.0356316916 33.0792291,0.206937901 32.7708779,0.498158458 L31.6231263,1.57738758 L14.9036403,1.57738758 C14.4753747,1.5945182 14.0471092,1.76582441 13.738758,2.07417559 L0.548179872,14.2883084 C0.034261242,14.7850964 -0.137044968,15.5388437 0.119914347,16.2069379 C0.376873662,16.8750321 1.01070664,17.3204283 1.7130621,17.3375589 L18.0214133,17.3375589 L18.0214133,24.1898073 L1.7130621,24.1898073 C0.770877944,24.1898073 0,24.9606852 0,25.9028694 C0,26.8450535 0.770877944,27.6159315 1.7130621,27.6159315 L18.0214133,27.6159315 L18.0214133,34.8107923 L1.7130621,34.8107923 C0.770877944,34.8107923 0,35.5816702 0,36.5238544 C0,37.4660385 0.770877944,38.2369165 1.7130621,38.2369165 L18.0214133,38.2369165 L18.0214133,45.2604711 L1.7130621,45.2604711 C0.770877944,45.2604711 0,46.031349 0,46.9735332 C0,47.9157173 0.770877944,48.6865953 1.7130621,48.6865953 L64.993576,48.6865953 C65.3361884,48.6694647 65.6616702,48.5666809 65.9357602,48.3611135 L79.1263383,39.7272805 C79.9143469,39.2133619 80.137045,38.1339615 79.6231263,37.3461242 Z M59.1862955,5.07203426 C59.2034261,5.07203426 59.2205567,5.00351178 59.254818,5.00351178 L73.8158458,5.00351178 L64.3254818,13.9114347 L49.7473233,13.9114347 L59.1862955,5.07203426 Z M18.5010707,13.9114347 L6.08137045,13.9114347 L15.5717345,5.00351178 L27.9400428,5.00351178 L18.5867238,13.7743897 C18.5524625,13.791349 18.5353319,13.7401285 18.5010707,13.9114347 Z M37.738758,24.0354604 L40.0513919,24.0354604 C40.993576,24.0354604 41.764454,24.8063383 41.764454,25.7485225 C41.764454,26.6907066 40.993576,27.4615846 40.0513919,27.4615846 L37.738758,27.4615846 C37.3961456,28.7806424 36.7109208,29.9969165 35.751606,30.9904925 C34.4496788,32.2752891 32.7194861,33.046167 30.9036403,33.1318201 L37.3961456,39.2645824 L37.4132762,39.2817131 C38.0985011,39.9326767 38.1156317,41.0119058 37.4646681,41.6971306 C36.8137045,42.3823555 35.7344754,42.3994861 35.0492505,41.7485225 L25.4389722,32.6521627 C25.1134904,32.3266809 24.9079229,31.8812848 24.9079229,31.418758 C24.8907923,30.4594433 25.6616702,29.6885653 26.620985,29.6714347 L30.4753747,29.6714347 C31.5546039,29.6885653 32.5824411,29.294561 33.3533191,28.5408137 C33.6616702,28.2153319 33.9357602,27.8384582 34.1584582,27.444454 L26.6381156,27.444454 C25.6959315,27.444454 24.9250535,26.673576 24.9250535,25.7313919 C24.9250535,24.7892077 25.6959315,24.0183298 26.6381156,24.0183298 L34.1584582,24.0183298 C33.5074946,22.4765739 32.1199143,21.6200428 30.4925054,21.6200428 L26.6381156,21.6200428 C25.6959315,21.6200428 24.9250535,20.8491649 24.9250535,19.9069807 C24.9250535,18.9647966 25.6959315,18.1939186 26.6381156,18.1939186 L40.0685225,18.1939186 C41.0107066,18.1939186 41.7815846,18.9647966 41.7815846,19.9069807 C41.7815846,20.8491649 41.0107066,21.6200428 40.0513919,21.6371734 L36.745182,21.6371734 C37.2077088,22.3739615 37.5503212,23.1789293 37.738758,24.0354604 Z" id="Shape"></path>
                </g>
            </g>
        </g>
    </g>
</svg>