<?xml version="1.0" encoding="UTF-8"?>
<svg width="80px" height="80px" viewBox="0 0 80 80" version="1.1" xmlns="http://www.w3.org/2000/svg" xmlns:xlink="http://www.w3.org/1999/xlink">
    <!-- Generator: Sketch 52.3 (67297) - http://www.bohemiancoding.com/sketch -->
    <title>count-atm</title>
    <desc>Created with Sketch.</desc>
    <g id="Symbols" stroke="none" stroke-width="1" fill="none" fill-rule="evenodd">
        <g id="count-atm" fill="#008749" fill-rule="nonzero">
            <g id="branch" transform="translate(15.000000, 10.000000)">
                <g id="atm">
                    <path d="M47.6942952,-1.77635684e-13 C48.9367463,-1.77635684e-13 49.9438115,1.00718891 49.9438115,2.24951631 L49.9438115,57.7504837 C49.9438115,58.9928111 48.9366226,60 47.6942952,60 L2.24951631,60 C1.00706528,60 -8.52651283e-14,58.9928111 -8.52651283e-14,57.7504837 L-8.52651283e-14,2.24951631 C-8.52651283e-14,1.00706528 1.00706528,-1.77635684e-13 2.24951631,-1.77635684e-13 L47.6942952,-1.77635684e-13 Z M8.20821254,7.80135619 L8.20821254,26.6492765 C8.20821254,27.0930973 8.56796702,27.4528518 9.01178783,27.4528518 L40.9319001,27.4528518 C41.3757209,27.4528518 41.7354754,27.0930973 41.7354754,26.6492765 L41.7354754,7.80135619 C41.7354754,7.35753537 41.3757209,6.9977809 40.9319001,6.9977809 L9.01178783,6.9977809 C8.56796702,6.9977809 8.20821254,7.35753537 8.20821254,7.80135619 Z M20.6714181,52.031871 L20.6714181,38.3075468 C20.6714181,37.8636024 20.3116636,37.5039715 19.8678428,37.5039715 L11.0185008,37.5039715 C10.57468,37.5039715 10.2149255,37.8636024 10.2149255,38.3075468 L10.2149255,52.031871 C10.2149255,52.4756918 10.57468,52.8354463 11.0185008,52.8354463 L19.8678428,52.8354463 C20.3116636,52.8354463 20.6714181,52.4756918 20.6714181,52.031871 Z M23.7363779,37.0094636 L23.7363779,34.7970354 C23.7363779,34.3532146 23.3766234,33.9934601 22.9328026,33.9934601 L7.96701632,33.9934601 C7.52319551,33.9934601 7.16344103,34.3532146 7.16344103,34.7970354 L7.16344103,37.0094636 C7.16344103,37.4532845 7.52319551,37.8130389 7.96701632,37.8130389 L8.95912274,37.8130389 C9.40294356,37.8130389 9.76269803,37.4532845 9.76269803,37.0094636 L9.76269803,36.5831979 L21.1531924,36.5831979 L21.1531924,37.0094636 C21.1531924,37.4532845 21.5129468,37.8130389 21.9567676,37.8130389 L22.9328026,37.8130389 C23.3766234,37.8130389 23.7363779,37.4532845 23.7363779,37.0094636 Z M29.9443061,52.6315855 L29.9443061,49.3752511 C29.9443061,49.0681617 29.6950741,48.8189298 29.3879847,48.8189298 L26.1314031,48.8189298 C25.8243137,48.8189298 25.5750817,49.0681617 25.5750817,49.3752511 L25.5750817,52.6315855 C25.5750817,52.9387985 25.8243137,53.1879068 26.1314031,53.1879068 L29.3879847,53.1879068 C29.6950741,53.1879068 29.9443061,52.9387985 29.9443061,52.6315855 Z M29.9443061,46.2132442 L29.9443061,42.9569098 C29.9443061,42.6498204 29.6950741,42.4005885 29.3879847,42.4005885 L26.1314031,42.4005885 C25.8243137,42.4005885 25.5750817,42.6498204 25.5750817,42.9569098 L25.5750817,46.2132442 C25.5750817,46.5204572 25.8243137,46.7695655 26.1314031,46.7695655 L29.3879847,46.7695655 C29.6950741,46.7695655 29.9443061,46.5204572 29.9443061,46.2132442 Z M29.9443061,39.7952737 L29.9443061,36.5389394 C29.9443061,36.2317264 29.6950741,35.982618 29.3879847,35.982618 L26.1314031,35.982618 C25.8243137,35.982618 25.5750817,36.2317264 25.5750817,36.5389394 L25.5750817,39.7952737 C25.5750817,40.1023631 25.8243137,40.3515951 26.1314031,40.3515951 L29.3879847,40.3515951 C29.6950741,40.3515951 29.9443061,40.1023631 29.9443061,39.7952737 Z M36.3622765,52.6315855 L36.3622765,49.3752511 C36.3622765,49.0681617 36.1131681,48.8189298 35.8059551,48.8189298 L32.5494971,48.8189298 C32.2422841,48.8189298 31.9931758,49.0681617 31.9931758,49.3752511 L31.9931758,52.6315855 C31.9931758,52.9387985 32.2422841,53.1879068 32.5494971,53.1879068 L35.8059551,53.1879068 C36.1131681,53.1879068 36.3622765,52.9387985 36.3622765,52.6315855 Z M36.3622765,46.2132442 L36.3622765,42.9569098 C36.3622765,42.6498204 36.1131681,42.4005885 35.8059551,42.4005885 L32.5494971,42.4005885 C32.2422841,42.4005885 31.9931758,42.6498204 31.9931758,42.9569098 L31.9931758,46.2132442 C31.9931758,46.5204572 32.2422841,46.7695655 32.5494971,46.7695655 L35.8059551,46.7695655 C36.1131681,46.7695655 36.3622765,46.5204572 36.3622765,46.2132442 Z M36.3622765,39.7952737 L36.3622765,36.5389394 C36.3622765,36.2317264 36.1131681,35.982618 35.8059551,35.982618 L32.5494971,35.982618 C32.2422841,35.982618 31.9931758,36.2317264 31.9931758,36.5389394 L31.9931758,39.7952737 C31.9931758,40.1023631 32.2422841,40.3515951 32.5494971,40.3515951 L35.8059551,40.3515951 C36.1131681,40.3515951 36.3622765,40.1023631 36.3622765,39.7952737 Z M42.7803705,52.6315855 L42.7803705,49.3752511 C42.7803705,49.0681617 42.5312622,48.8189298 42.2240492,48.8189298 L38.9675912,48.8189298 C38.6603782,48.8189298 38.4112698,49.0681617 38.4112698,49.3752511 L38.4112698,52.6315855 C38.4112698,52.9387985 38.6603782,53.1879068 38.9675912,53.1879068 L42.2240492,53.1879068 C42.5312622,53.1879068 42.7803705,52.9387985 42.7803705,52.6315855 Z M42.7803705,46.2132442 L42.7803705,42.9569098 C42.7803705,42.6498204 42.5312622,42.4005885 42.2240492,42.4005885 L38.9675912,42.4005885 C38.6603782,42.4005885 38.4112698,42.6498204 38.4112698,42.9569098 L38.4112698,46.2132442 C38.4112698,46.5204572 38.6603782,46.7695655 38.9675912,46.7695655 L42.2240492,46.7695655 C42.5312622,46.7695655 42.7803705,46.5204572 42.7803705,46.2132442 Z M42.7803705,39.7952737 L42.7803705,36.5389394 C42.7803705,36.2317264 42.5312622,35.982618 42.2240492,35.982618 L38.9675912,35.982618 C38.6603782,35.982618 38.4112698,36.2317264 38.4112698,36.5389394 L38.4112698,39.7952737 C38.4112698,40.1023631 38.6603782,40.3515951 38.9675912,40.3515951 L42.2240492,40.3515951 C42.5312622,40.3515951 42.7803705,40.1023631 42.7803705,39.7952737 Z M11.4965663,22.0283477 C11.325961,22.0283477 11.1653696,21.947372 11.0633774,21.8105169 C10.9618796,21.6734146 10.9314674,21.4962572 10.9812891,21.3330696 L13.7987477,12.115072 C13.8679788,11.888711 14.0769083,11.7340537 14.3135304,11.7340537 L16.6830884,11.7340537 C16.9189687,11.7340537 17.1272801,11.8875984 17.1971294,12.1128467 L20.0556321,21.3308443 C20.1061956,21.4942792 20.0762778,21.6719311 19.9747801,21.8095279 C19.873406,21.9472484 19.7125673,22.0284713 19.5414676,22.0284713 L17.9668309,22.0284713 C17.7293435,22.0284713 17.5199194,21.8725777 17.4514301,21.6451041 L16.7916329,19.44986 L14.1017574,19.44986 L13.495738,21.6339776 C13.4310811,21.8670145 13.2190608,22.0283477 12.9771228,22.0283477 L11.4965663,22.0283477 Z M15.0509652,15.5294016 L14.4990944,17.5021171 L16.3902162,17.5021171 L15.8102821,15.5275472 C15.6728089,15.0695093 15.5349648,14.5215945 15.4108433,14.0216471 C15.385747,14.1310569 15.3602799,14.2435575 15.3344419,14.3587778 C15.2434524,14.7627908 15.1499904,15.1779301 15.0509652,15.5294016 Z M19.7131854,13.890108 C19.4159862,13.890108 19.1749136,13.649159 19.17479,13.3518362 L19.17479,12.2720782 C19.17479,11.9747554 19.4158626,11.7338064 19.7130618,11.7338064 L26.6058834,11.7338064 C26.9033299,11.7338064 27.1441552,11.9747554 27.1441552,12.2720782 L27.1441552,13.3518362 C27.1441552,13.649159 26.9030826,13.890108 26.6058834,13.890108 L24.4016146,13.890108 L24.4016146,21.4900758 C24.4016146,21.7873987 24.1606656,22.0283477 23.8633427,22.0283477 L22.4109731,22.0283477 C22.1137739,22.0283477 21.8728249,21.7872751 21.8728249,21.4900758 L21.8728249,13.890108 L19.7131854,13.890108 Z M28.2366467,22.0283477 C28.0877999,22.0283477 27.9457525,21.9667814 27.8440075,21.858237 C27.7422625,21.7498161 27.689721,21.6041835 27.6993639,21.4557075 L28.2873338,12.2377099 C28.305507,11.9543569 28.5406455,11.7336828 28.8246166,11.7336828 L31.1517706,11.7336828 C31.3907416,11.7336828 31.6011547,11.8913072 31.6682841,12.1205116 L32.563467,15.1722433 C32.564456,15.1760757 32.5656923,15.1799081 32.5666813,15.1838642 C32.8981252,16.4158069 33.1440192,17.4296717 33.3280998,18.3302942 C33.5550789,17.4149601 33.8593249,16.237166 34.1729665,15.1670509 C34.17445,15.1626004 34.1756863,15.1581498 34.1770462,15.1536992 L35.1562954,12.1072835 C35.227999,11.8847549 35.434827,11.7338064 35.6688528,11.7338064 L37.9412401,11.7338064 C38.2270657,11.7338064 38.4630695,11.9570767 38.4786465,12.2425314 L38.9846517,21.460529 C38.9926875,21.6081396 38.9397751,21.7526595 38.8380301,21.8600914 C38.7364088,21.9675232 38.5949795,22.0283477 38.4472453,22.0283477 L37.0617579,22.0283477 C36.7725944,22.0283477 36.5352306,21.799885 36.5239805,21.5109688 L36.3903398,18.0642489 C36.3559715,17.1370467 36.3175235,15.9655575 36.3049136,14.730895 C36.0360249,15.7530428 35.7101442,16.8574025 35.379813,17.8612535 L34.2494916,21.4864907 C34.1793951,21.7113681 33.9712073,21.8645419 33.7356979,21.8645419 L32.5818874,21.8645419 C32.3397022,21.8645419 32.1275583,21.7029615 32.0631487,21.4694301 L31.0733911,17.8821464 C30.8007937,16.9025263 30.5440205,15.8435377 30.3404069,14.864783 C30.3332365,15.0476273 30.3263134,15.2317078 30.3192666,15.4162829 C30.2845275,16.3323587 30.2483048,17.2797122 30.1994721,18.1009661 L30.0394988,21.5152957 C30.0258998,21.8024812 29.7892778,22.0283477 29.5018451,22.0283477 L28.2366467,22.0283477 Z" id="Combined-Shape"></path>
                </g>
            </g>
        </g>
    </g>
</svg>